<mxfile host="app.diagrams.net" agent="Mozilla/5.0 (Macintosh; Intel Mac OS X 10_15_7) AppleWebKit/537.36 (KHTML, like Gecko) Chrome/131.0.0.0 Safari/537.36" version="26.0.2">
  <diagram id="6a731a19-8d31-9384-78a2-239565b7b9f0" name="Page-1">
    <mxGraphModel grid="1" page="1" gridSize="10" guides="1" tooltips="1" connect="1" arrows="1" fold="1" pageScale="1" pageWidth="1169" pageHeight="827" background="none" math="0" shadow="0">
      <root>
        <mxCell id="0" />
        <mxCell id="1" parent="0" />
        <mxCell id="IALrsoC1u68m4rLIXQtQ-102" value="" style="shape=process;whiteSpace=wrap;html=1;backgroundOutline=1;" vertex="1" parent="1">
          <mxGeometry x="45" y="630" width="1080" height="710" as="geometry" />
        </mxCell>
        <mxCell id="IALrsoC1u68m4rLIXQtQ-79" value="" style="shape=process;whiteSpace=wrap;html=1;backgroundOutline=1;" vertex="1" parent="1">
          <mxGeometry x="45" y="240" width="1080" height="390" as="geometry" />
        </mxCell>
        <mxCell id="2" value="start" style="shape=mxgraph.flowchart.terminator;strokeWidth=2;gradientColor=none;gradientDirection=north;fontStyle=0;html=1;" vertex="1" parent="1">
          <mxGeometry x="260" y="60" width="120" height="30" as="geometry" />
        </mxCell>
        <mxCell id="3" value="&lt;div&gt;EvaluaciÃ³n de&amp;nbsp;&lt;/div&gt;&lt;div&gt;comandos&amp;nbsp;&lt;/div&gt;&lt;div&gt;&lt;br&gt;&lt;/div&gt;" style="shape=mxgraph.flowchart.data;strokeWidth=2;gradientColor=none;gradientDirection=north;fontStyle=0;html=1;" vertex="1" parent="1">
          <mxGeometry x="240.5" y="130" width="159" height="80" as="geometry" />
        </mxCell>
        <mxCell id="4" value="&lt;div&gt;&lt;span style=&quot;background-color: initial;&quot;&gt;Descarga desde Git&lt;/span&gt;&lt;/div&gt;&lt;div&gt;en carpeta local&amp;nbsp;&lt;/div&gt;" style="shape=mxgraph.flowchart.data;strokeWidth=2;gradientColor=none;gradientDirection=north;fontStyle=0;html=1;" vertex="1" parent="1">
          <mxGeometry x="240.5" y="526" width="159" height="80" as="geometry" />
        </mxCell>
        <mxCell id="IALrsoC1u68m4rLIXQtQ-65" value="" style="edgeStyle=orthogonalEdgeStyle;rounded=0;orthogonalLoop=1;jettySize=auto;html=1;" edge="1" parent="1" source="6">
          <mxGeometry relative="1" as="geometry">
            <mxPoint x="480" y="301" as="targetPoint" />
          </mxGeometry>
        </mxCell>
        <mxCell id="IALrsoC1u68m4rLIXQtQ-69" value="" style="edgeStyle=orthogonalEdgeStyle;rounded=0;orthogonalLoop=1;jettySize=auto;html=1;" edge="1" parent="1" source="6" target="IALrsoC1u68m4rLIXQtQ-68">
          <mxGeometry relative="1" as="geometry" />
        </mxCell>
        <mxCell id="6" value="existe nombre&amp;nbsp;&lt;div&gt;de ms&lt;/div&gt;" style="shape=mxgraph.flowchart.decision;strokeWidth=2;gradientColor=none;gradientDirection=north;fontStyle=0;html=1;" vertex="1" parent="1">
          <mxGeometry x="250" y="266" width="140" height="70" as="geometry" />
        </mxCell>
        <mxCell id="7" style="fontStyle=1;strokeColor=#003366;strokeWidth=1;html=1;" edge="1" parent="1" source="2" target="3">
          <mxGeometry relative="1" as="geometry" />
        </mxCell>
        <mxCell id="8" style="fontStyle=1;strokeColor=#003366;strokeWidth=1;html=1;entryX=0.5;entryY=0;entryDx=0;entryDy=0;entryPerimeter=0;" edge="1" parent="1" source="3" target="6">
          <mxGeometry relative="1" as="geometry">
            <mxPoint x="320" y="250" as="targetPoint" />
            <Array as="points">
              <mxPoint x="320" y="230" />
            </Array>
          </mxGeometry>
        </mxCell>
        <mxCell id="11" value="no" style="text;fontStyle=0;html=1;strokeColor=none;gradientColor=none;fillColor=none;strokeWidth=2;" vertex="1" parent="1">
          <mxGeometry x="404" y="271" width="40" height="26" as="geometry" />
        </mxCell>
        <mxCell id="IALrsoC1u68m4rLIXQtQ-82" value="" style="edgeStyle=orthogonalEdgeStyle;rounded=0;orthogonalLoop=1;jettySize=auto;html=1;entryX=0.5;entryY=0;entryDx=0;entryDy=0;entryPerimeter=0;" edge="1" parent="1" source="13" target="IALrsoC1u68m4rLIXQtQ-98">
          <mxGeometry relative="1" as="geometry">
            <mxPoint x="320" y="815.5999999999999" as="targetPoint" />
          </mxGeometry>
        </mxCell>
        <mxCell id="13" value="&amp;nbsp; &amp;nbsp; &amp;nbsp;Obtiene rama&amp;nbsp;&lt;span style=&quot;background-color: initial;&quot;&gt;master&amp;nbsp;&lt;/span&gt;&lt;div&gt;&lt;span style=&quot;background-color: initial;&quot;&gt;de configuraciones&lt;/span&gt;&lt;div&gt;&lt;div&gt;para el ms&lt;/div&gt;&lt;/div&gt;&lt;/div&gt;" style="shape=mxgraph.flowchart.data;strokeWidth=2;gradientColor=none;gradientDirection=north;fontStyle=0;html=1;" vertex="1" parent="1">
          <mxGeometry x="240.5" y="671" width="159" height="80" as="geometry" />
        </mxCell>
        <mxCell id="14" value="si" style="text;fontStyle=0;html=1;strokeColor=none;gradientColor=none;fillColor=none;strokeWidth=2;align=center;" vertex="1" parent="1">
          <mxGeometry x="281" y="341.5" width="40" height="26" as="geometry" />
        </mxCell>
        <mxCell id="15" value="Info: La carpeta ya existe." style="shape=mxgraph.flowchart.document;strokeWidth=2;gradientColor=none;gradientDirection=north;fontStyle=0;html=1;" vertex="1" parent="1">
          <mxGeometry x="480" y="396" width="160" height="70" as="geometry" />
        </mxCell>
        <mxCell id="17" value="" style="edgeStyle=elbowEdgeStyle;elbow=horizontal;fontStyle=1;strokeColor=#003366;strokeWidth=1;html=1;" edge="1" parent="1" source="4" target="13">
          <mxGeometry width="100" height="100" as="geometry">
            <mxPoint y="120" as="sourcePoint" />
            <mxPoint x="100" y="20" as="targetPoint" />
          </mxGeometry>
        </mxCell>
        <mxCell id="18" value="Realiza pull&lt;div&gt;de las configuraciones&lt;/div&gt;&lt;div&gt;a carpeta local&lt;span style=&quot;background-color: initial;&quot;&gt;&amp;nbsp;&lt;/span&gt;&lt;/div&gt;&lt;div&gt;&lt;div&gt;&lt;br&gt;&lt;/div&gt;&lt;/div&gt;" style="shape=mxgraph.flowchart.predefined_process;strokeWidth=2;gradientColor=none;gradientDirection=north;fontStyle=0;html=1;" vertex="1" parent="1">
          <mxGeometry x="480" y="666" width="190" height="90" as="geometry" />
        </mxCell>
        <mxCell id="19" value="" style="edgeStyle=elbowEdgeStyle;elbow=horizontal;exitX=0.905;exitY=0.5;exitPerimeter=0;fontStyle=1;strokeColor=#003366;strokeWidth=1;html=1;" edge="1" parent="1" source="13" target="18">
          <mxGeometry width="100" height="100" as="geometry">
            <mxPoint y="131" as="sourcePoint" />
            <mxPoint x="100" y="31" as="targetPoint" />
          </mxGeometry>
        </mxCell>
        <mxCell id="IALrsoC1u68m4rLIXQtQ-83" value="" style="edgeStyle=orthogonalEdgeStyle;rounded=0;orthogonalLoop=1;jettySize=auto;html=1;exitX=0.5;exitY=1;exitDx=0;exitDy=0;exitPerimeter=0;" edge="1" parent="1" source="IALrsoC1u68m4rLIXQtQ-98" target="IALrsoC1u68m4rLIXQtQ-80">
          <mxGeometry relative="1" as="geometry">
            <mxPoint x="320.0999999999999" y="880" as="sourcePoint" />
          </mxGeometry>
        </mxCell>
        <mxCell id="22" value="create Gantt&#xa;diagram" style="shape=mxgraph.flowchart.document;strokeWidth=2;gradientColor=none;gradientDirection=north;fontStyle=0;html=1;" vertex="1" parent="1">
          <mxGeometry x="238" y="1610" width="159" height="90" as="geometry" />
        </mxCell>
        <mxCell id="24" value="late&#xa;project&#xa;changes?" style="shape=mxgraph.flowchart.decision;strokeWidth=2;gradientColor=none;gradientDirection=north;fontStyle=0;html=1;" vertex="1" parent="1">
          <mxGeometry x="259" y="1770" width="119" height="78.5" as="geometry" />
        </mxCell>
        <mxCell id="25" value="" style="edgeStyle=elbowEdgeStyle;elbow=horizontal;exitX=0.5;exitY=0.9;exitPerimeter=0;fontStyle=1;strokeColor=#003366;strokeWidth=1;html=1;" edge="1" parent="1" source="22" target="24">
          <mxGeometry width="100" height="100" as="geometry">
            <mxPoint x="-2.5" y="790" as="sourcePoint" />
            <mxPoint x="97.5" y="690" as="targetPoint" />
          </mxGeometry>
        </mxCell>
        <mxCell id="27" value="yes" style="text;fontStyle=0;html=1;strokeColor=none;gradientColor=none;fillColor=none;strokeWidth=2;" vertex="1" parent="1">
          <mxGeometry x="277.5" y="1848.5" width="40" height="26" as="geometry" />
        </mxCell>
        <mxCell id="28" value="investor&#xa;disapproves&#xa; investment?" style="shape=mxgraph.flowchart.decision;strokeWidth=2;gradientColor=none;gradientDirection=north;fontStyle=0;html=1;" vertex="1" parent="1">
          <mxGeometry x="252.5" y="1900" width="130" height="100" as="geometry" />
        </mxCell>
        <mxCell id="29" value="agreement?" style="shape=mxgraph.flowchart.decision;strokeWidth=2;gradientColor=none;gradientDirection=north;fontStyle=0;html=1;" vertex="1" parent="1">
          <mxGeometry x="507.5" y="1900" width="130" height="100" as="geometry" />
        </mxCell>
        <mxCell id="30" value="" style="edgeStyle=elbowEdgeStyle;elbow=horizontal;exitX=0.5;exitY=1;exitPerimeter=0;fontStyle=1;strokeColor=#003366;strokeWidth=1;html=1;" edge="1" parent="1" source="24" target="28">
          <mxGeometry width="100" height="100" as="geometry">
            <mxPoint x="-2.5" y="790" as="sourcePoint" />
            <mxPoint x="97.5" y="690" as="targetPoint" />
          </mxGeometry>
        </mxCell>
        <mxCell id="31" value="" style="edgeStyle=elbowEdgeStyle;elbow=horizontal;exitX=1;exitY=0.5;exitPerimeter=0;entryX=0;entryY=0.5;entryPerimeter=0;fontStyle=1;strokeColor=#003366;strokeWidth=1;html=1;" edge="1" parent="1" source="28" target="29">
          <mxGeometry width="100" height="100" as="geometry">
            <mxPoint x="-2.5" y="790" as="sourcePoint" />
            <mxPoint x="97.5" y="690" as="targetPoint" />
          </mxGeometry>
        </mxCell>
        <mxCell id="32" value="terminate&#xa;contract&#xa;" style="shape=mxgraph.flowchart.merge_or_storage;strokeWidth=2;gradientColor=none;gradientDirection=north;fontStyle=0;html=1;" vertex="1" parent="1">
          <mxGeometry x="757.5" y="1934" width="130" height="80.5" as="geometry" />
        </mxCell>
        <mxCell id="33" value="" style="edgeStyle=elbowEdgeStyle;elbow=vertical;exitX=1;exitY=0.5;exitPerimeter=0;entryX=0.5;entryY=0;entryPerimeter=0;fontStyle=1;strokeColor=#003366;strokeWidth=1;html=1;" edge="1" parent="1" source="29">
          <mxGeometry width="100" height="100" as="geometry">
            <mxPoint x="-2.5" y="785" as="sourcePoint" />
            <mxPoint x="822.5" y="1985" as="targetPoint" />
            <Array as="points">
              <mxPoint x="737.5" y="1945" />
            </Array>
          </mxGeometry>
        </mxCell>
        <mxCell id="34" value="create&#xa;status&#xa;report" style="shape=mxgraph.flowchart.data;strokeWidth=2;gradientColor=none;gradientDirection=north;fontStyle=0;html=1;" vertex="1" parent="1">
          <mxGeometry x="238" y="2180" width="159" height="80" as="geometry" />
        </mxCell>
        <mxCell id="35" value="" style="edgeStyle=elbowEdgeStyle;elbow=vertical;exitX=0.5;exitY=1;exitPerimeter=0;fontColor=#001933;fontStyle=1;strokeColor=#003366;strokeWidth=1;html=1;" edge="1" parent="1" source="28" target="34">
          <mxGeometry width="100" height="100" as="geometry">
            <mxPoint x="-2.5" y="790" as="sourcePoint" />
            <mxPoint x="97.5" y="690" as="targetPoint" />
          </mxGeometry>
        </mxCell>
        <mxCell id="36" value="" style="edgeStyle=elbowEdgeStyle;elbow=vertical;exitX=0.5;exitY=1;exitPerimeter=0;entryX=0.5;entryY=0;entryPerimeter=0;fontStyle=1;strokeColor=#003366;strokeWidth=1;html=1;" edge="1" parent="1" source="29" target="34">
          <mxGeometry width="100" height="100" as="geometry">
            <mxPoint x="-2.5" y="790" as="sourcePoint" />
            <mxPoint x="97.5" y="690" as="targetPoint" />
          </mxGeometry>
        </mxCell>
        <mxCell id="37" value="project&#xa;complete?" style="shape=mxgraph.flowchart.decision;strokeWidth=2;gradientColor=none;gradientDirection=north;fontStyle=0;html=1;" vertex="1" parent="1">
          <mxGeometry x="268.5" y="2311.5" width="98" height="57" as="geometry" />
        </mxCell>
        <mxCell id="38" value="create&#xa;final&#xa;report" style="shape=mxgraph.flowchart.data;strokeWidth=2;gradientColor=none;gradientDirection=north;fontStyle=0;html=1;" vertex="1" parent="1">
          <mxGeometry x="238" y="2420" width="159" height="80" as="geometry" />
        </mxCell>
        <mxCell id="39" value="issue&#xa;bill of works" style="shape=mxgraph.flowchart.predefined_process;strokeWidth=2;gradientColor=none;gradientDirection=north;fontStyle=0;html=1;" vertex="1" parent="1">
          <mxGeometry x="557.5" y="2415" width="190" height="90" as="geometry" />
        </mxCell>
        <mxCell id="40" value="end" style="shape=mxgraph.flowchart.terminator;strokeWidth=2;gradientColor=none;gradientDirection=north;fontStyle=0;html=1;" vertex="1" parent="1">
          <mxGeometry x="257.5" y="2600" width="120" height="30" as="geometry" />
        </mxCell>
        <mxCell id="41" value="" style="edgeStyle=elbowEdgeStyle;elbow=vertical;exitX=0.5;exitY=1;exitPerimeter=0;entryX=0.5;entryY=0;entryPerimeter=0;fontStyle=1;strokeColor=#003366;strokeWidth=1;html=1;" edge="1" parent="1" source="34" target="37">
          <mxGeometry width="100" height="100" as="geometry">
            <mxPoint x="-2.5" y="790" as="sourcePoint" />
            <mxPoint x="97.5" y="690" as="targetPoint" />
          </mxGeometry>
        </mxCell>
        <mxCell id="42" value="" style="edgeStyle=elbowEdgeStyle;elbow=vertical;exitX=0.5;exitY=1;exitPerimeter=0;entryX=0.5;entryY=0;entryPerimeter=0;fontStyle=1;strokeColor=#003366;strokeWidth=1;html=1;" edge="1" parent="1" source="37" target="38">
          <mxGeometry width="100" height="100" as="geometry">
            <mxPoint x="-2.5" y="790" as="sourcePoint" />
            <mxPoint x="97.5" y="690" as="targetPoint" />
          </mxGeometry>
        </mxCell>
        <mxCell id="43" value="" style="edgeStyle=elbowEdgeStyle;elbow=vertical;exitX=0.5;exitY=1;exitPerimeter=0;entryX=0.5;entryY=0;entryPerimeter=0;fontStyle=1;strokeColor=#003366;strokeWidth=1;html=1;" edge="1" parent="1" source="38" target="40">
          <mxGeometry width="100" height="100" as="geometry">
            <mxPoint x="-2.5" y="790" as="sourcePoint" />
            <mxPoint x="97.5" y="690" as="targetPoint" />
          </mxGeometry>
        </mxCell>
        <mxCell id="44" value="" style="edgeStyle=elbowEdgeStyle;elbow=vertical;exitX=0.905;exitY=0.5;exitPerimeter=0;entryX=0;entryY=0.5;entryPerimeter=0;fontStyle=1;strokeColor=#003366;strokeWidth=1;html=1;" edge="1" parent="1" source="38" target="39">
          <mxGeometry width="100" height="100" as="geometry">
            <mxPoint x="-2.5" y="790" as="sourcePoint" />
            <mxPoint x="97.5" y="690" as="targetPoint" />
          </mxGeometry>
        </mxCell>
        <mxCell id="45" value="" style="edgeStyle=elbowEdgeStyle;elbow=horizontal;exitX=1;exitY=0.5;exitPerimeter=0;entryX=0.905;entryY=0.5;entryPerimeter=0;fontStyle=1;strokeColor=#003366;strokeWidth=1;html=1;" edge="1" parent="1" source="24" target="34">
          <mxGeometry width="100" height="100" as="geometry">
            <mxPoint x="-2.5" y="770" as="sourcePoint" />
            <mxPoint x="97.5" y="670" as="targetPoint" />
            <Array as="points">
              <mxPoint x="947.5" y="1990" />
            </Array>
          </mxGeometry>
        </mxCell>
        <mxCell id="46" value="no" style="text;fontStyle=0;html=1;strokeColor=none;gradientColor=none;fillColor=none;strokeWidth=2;" vertex="1" parent="1">
          <mxGeometry x="378" y="1783.25" width="40" height="26" as="geometry" />
        </mxCell>
        <mxCell id="47" value="yes" style="text;fontColor=#001933;fontStyle=0;html=1;strokeColor=none;gradientColor=none;fillColor=none;strokeWidth=2;" vertex="1" parent="1">
          <mxGeometry x="382.5" y="1924" width="40" height="26" as="geometry" />
        </mxCell>
        <mxCell id="48" value="no" style="text;fontColor=#001933;fontStyle=0;html=1;strokeColor=none;gradientColor=none;fillColor=none;strokeWidth=2;align=center;" vertex="1" parent="1">
          <mxGeometry x="317.5" y="2000" width="40" height="26" as="geometry" />
        </mxCell>
        <mxCell id="49" value="yes" style="text;fontColor=#001933;fontStyle=0;html=1;strokeColor=none;gradientColor=none;fillColor=none;strokeWidth=2;align=center;" vertex="1" parent="1">
          <mxGeometry x="572.5" y="2000" width="40" height="26" as="geometry" />
        </mxCell>
        <mxCell id="50" value="no" style="text;fontColor=#001933;fontStyle=0;html=1;strokeColor=none;gradientColor=none;fillColor=none;strokeWidth=2;" vertex="1" parent="1">
          <mxGeometry x="637.5" y="1924" width="40" height="26" as="geometry" />
        </mxCell>
        <mxCell id="IALrsoC1u68m4rLIXQtQ-78" value="" style="edgeStyle=orthogonalEdgeStyle;rounded=0;orthogonalLoop=1;jettySize=auto;html=1;" edge="1" parent="1" source="51" target="IALrsoC1u68m4rLIXQtQ-77">
          <mxGeometry relative="1" as="geometry" />
        </mxCell>
        <mxCell id="51" value="Error: Se requiere&lt;div&gt;el nombre del ms&lt;/div&gt;" style="shape=mxgraph.flowchart.paper_tape;strokeWidth=2;gradientColor=none;gradientDirection=north;fontStyle=0;html=1;" vertex="1" parent="1">
          <mxGeometry x="480" y="257.5" width="160" height="81" as="geometry" />
        </mxCell>
        <mxCell id="53" value="yes" style="text;fontStyle=0;html=1;strokeColor=none;gradientColor=none;fillColor=none;strokeWidth=2;align=center;" vertex="1" parent="1">
          <mxGeometry x="318.5" y="2370" width="40" height="26" as="geometry" />
        </mxCell>
        <mxCell id="55" value="no" style="text;fontStyle=0;html=1;strokeColor=none;gradientColor=none;fillColor=none;strokeWidth=2;" vertex="1" parent="1">
          <mxGeometry x="232.5" y="2314" width="40" height="26" as="geometry" />
        </mxCell>
        <mxCell id="IALrsoC1u68m4rLIXQtQ-67" value="En este caso los comandos por defecto serÃ¡n:&lt;div&gt;-d : nombre de ms&amp;nbsp;&lt;/div&gt;&lt;div&gt;&lt;span style=&quot;background-color: initial;&quot;&gt;-sb: rama especifica para la gestiÃ³n del cambio&lt;/span&gt;&lt;/div&gt;" style="text;html=1;align=left;verticalAlign=middle;whiteSpace=wrap;rounded=0;" vertex="1" parent="1">
          <mxGeometry x="440" y="130" width="300" height="60" as="geometry" />
        </mxCell>
        <mxCell id="IALrsoC1u68m4rLIXQtQ-71" value="" style="edgeStyle=orthogonalEdgeStyle;rounded=0;orthogonalLoop=1;jettySize=auto;html=1;" edge="1" parent="1" source="IALrsoC1u68m4rLIXQtQ-68" target="15">
          <mxGeometry relative="1" as="geometry" />
        </mxCell>
        <mxCell id="IALrsoC1u68m4rLIXQtQ-74" value="" style="edgeStyle=orthogonalEdgeStyle;rounded=0;orthogonalLoop=1;jettySize=auto;html=1;" edge="1" parent="1" source="IALrsoC1u68m4rLIXQtQ-68" target="4">
          <mxGeometry relative="1" as="geometry" />
        </mxCell>
        <mxCell id="IALrsoC1u68m4rLIXQtQ-68" value="existe la carpeta&amp;nbsp;&lt;div&gt;local del ms&lt;/div&gt;" style="shape=mxgraph.flowchart.decision;strokeWidth=2;gradientColor=none;gradientDirection=north;fontStyle=0;html=1;" vertex="1" parent="1">
          <mxGeometry x="250" y="396" width="140" height="70" as="geometry" />
        </mxCell>
        <mxCell id="IALrsoC1u68m4rLIXQtQ-72" value="si" style="text;fontStyle=0;html=1;strokeColor=none;gradientColor=none;fillColor=none;strokeWidth=2;align=center;" vertex="1" parent="1">
          <mxGeometry x="385" y="396" width="40" height="26" as="geometry" />
        </mxCell>
        <mxCell id="IALrsoC1u68m4rLIXQtQ-73" value="no" style="text;fontStyle=0;html=1;strokeColor=none;gradientColor=none;fillColor=none;strokeWidth=2;" vertex="1" parent="1">
          <mxGeometry x="290" y="468" width="40" height="26" as="geometry" />
        </mxCell>
        <mxCell id="IALrsoC1u68m4rLIXQtQ-75" style="edgeStyle=orthogonalEdgeStyle;rounded=0;orthogonalLoop=1;jettySize=auto;html=1;entryX=0.905;entryY=0.5;entryDx=0;entryDy=0;entryPerimeter=0;" edge="1" parent="1" source="15" target="4">
          <mxGeometry relative="1" as="geometry">
            <Array as="points">
              <mxPoint x="560" y="566" />
            </Array>
          </mxGeometry>
        </mxCell>
        <mxCell id="IALrsoC1u68m4rLIXQtQ-77" value="end" style="shape=mxgraph.flowchart.terminator;strokeWidth=2;gradientColor=none;gradientDirection=north;fontStyle=0;html=1;" vertex="1" parent="1">
          <mxGeometry x="730" y="283" width="120" height="30" as="geometry" />
        </mxCell>
        <mxCell id="IALrsoC1u68m4rLIXQtQ-85" value="" style="edgeStyle=orthogonalEdgeStyle;rounded=0;orthogonalLoop=1;jettySize=auto;html=1;" edge="1" parent="1" source="IALrsoC1u68m4rLIXQtQ-80" target="IALrsoC1u68m4rLIXQtQ-84">
          <mxGeometry relative="1" as="geometry" />
        </mxCell>
        <mxCell id="IALrsoC1u68m4rLIXQtQ-93" value="" style="edgeStyle=orthogonalEdgeStyle;rounded=0;orthogonalLoop=1;jettySize=auto;html=1;" edge="1" parent="1" source="IALrsoC1u68m4rLIXQtQ-80" target="IALrsoC1u68m4rLIXQtQ-88">
          <mxGeometry relative="1" as="geometry" />
        </mxCell>
        <mxCell id="IALrsoC1u68m4rLIXQtQ-80" value="existe&amp;nbsp;&lt;div&gt;configuraciÃ³n&lt;/div&gt;" style="shape=mxgraph.flowchart.decision;strokeWidth=2;gradientColor=none;gradientDirection=north;fontStyle=0;html=1;" vertex="1" parent="1">
          <mxGeometry x="250" y="930" width="140" height="70" as="geometry" />
        </mxCell>
        <mxCell id="IALrsoC1u68m4rLIXQtQ-87" value="" style="edgeStyle=orthogonalEdgeStyle;rounded=0;orthogonalLoop=1;jettySize=auto;html=1;" edge="1" parent="1" source="IALrsoC1u68m4rLIXQtQ-84" target="IALrsoC1u68m4rLIXQtQ-86">
          <mxGeometry relative="1" as="geometry" />
        </mxCell>
        <mxCell id="IALrsoC1u68m4rLIXQtQ-84" value="Error:&amp;nbsp;&lt;span style=&quot;background-color: initial;&quot;&gt;No se ha encontrado&amp;nbsp;&lt;/span&gt;&lt;div&gt;&lt;span style=&quot;background-color: initial;&quot;&gt;la configuraciÃ³n&lt;/span&gt;&lt;/div&gt;" style="shape=mxgraph.flowchart.paper_tape;strokeWidth=2;gradientColor=none;gradientDirection=north;fontStyle=0;html=1;" vertex="1" parent="1">
          <mxGeometry x="480" y="924.5" width="190" height="81" as="geometry" />
        </mxCell>
        <mxCell id="IALrsoC1u68m4rLIXQtQ-86" value="end" style="shape=mxgraph.flowchart.terminator;strokeWidth=2;gradientColor=none;gradientDirection=north;fontStyle=0;html=1;" vertex="1" parent="1">
          <mxGeometry x="730" y="950" width="120" height="30" as="geometry" />
        </mxCell>
        <mxCell id="IALrsoC1u68m4rLIXQtQ-92" value="" style="edgeStyle=orthogonalEdgeStyle;rounded=0;orthogonalLoop=1;jettySize=auto;html=1;exitX=0.905;exitY=0.5;exitDx=0;exitDy=0;exitPerimeter=0;" edge="1" parent="1" source="IALrsoC1u68m4rLIXQtQ-88" target="IALrsoC1u68m4rLIXQtQ-91">
          <mxGeometry relative="1" as="geometry" />
        </mxCell>
        <mxCell id="IALrsoC1u68m4rLIXQtQ-95" value="" style="edgeStyle=orthogonalEdgeStyle;rounded=0;orthogonalLoop=1;jettySize=auto;html=1;" edge="1" parent="1" source="IALrsoC1u68m4rLIXQtQ-88">
          <mxGeometry relative="1" as="geometry">
            <mxPoint x="320" y="1220" as="targetPoint" />
          </mxGeometry>
        </mxCell>
        <mxCell id="IALrsoC1u68m4rLIXQtQ-88" value="&amp;nbsp; Se crea nuevo archivo&lt;div&gt;de configuraciÃ³n&lt;/div&gt;" style="shape=mxgraph.flowchart.data;strokeWidth=2;gradientColor=none;gradientDirection=north;fontStyle=0;html=1;" vertex="1" parent="1">
          <mxGeometry x="240.5" y="1070" width="159" height="80" as="geometry" />
        </mxCell>
        <mxCell id="IALrsoC1u68m4rLIXQtQ-89" value="no" style="text;fontStyle=0;html=1;strokeColor=none;gradientColor=none;fillColor=none;strokeWidth=2;" vertex="1" parent="1">
          <mxGeometry x="390" y="924" width="40" height="26" as="geometry" />
        </mxCell>
        <mxCell id="IALrsoC1u68m4rLIXQtQ-90" value="//&lt;b&gt;TODO&lt;/b&gt;: Opcional este step??" style="text;html=1;align=center;verticalAlign=middle;whiteSpace=wrap;rounded=0;" vertex="1" parent="1">
          <mxGeometry x="650" y="414" width="180" height="30" as="geometry" />
        </mxCell>
        <mxCell id="IALrsoC1u68m4rLIXQtQ-91" value="Se hace un commit&amp;nbsp;&lt;div&gt;al repositorio&lt;/div&gt;&lt;div&gt;con el nuevo archivo&lt;/div&gt;" style="shape=mxgraph.flowchart.predefined_process;strokeWidth=2;gradientColor=none;gradientDirection=north;fontStyle=0;html=1;" vertex="1" parent="1">
          <mxGeometry x="480" y="1065" width="190" height="90" as="geometry" />
        </mxCell>
        <mxCell id="IALrsoC1u68m4rLIXQtQ-97" value="existe el branch&amp;nbsp;&lt;div&gt;en git del ms&lt;/div&gt;" style="shape=mxgraph.flowchart.decision;strokeWidth=2;gradientColor=none;gradientDirection=north;fontStyle=0;html=1;" vertex="1" parent="1">
          <mxGeometry x="250" y="1220" width="140" height="70" as="geometry" />
        </mxCell>
        <mxCell id="IALrsoC1u68m4rLIXQtQ-98" value="Busca configuraciÃ³n&lt;div&gt;por ambiente para&amp;nbsp;&lt;/div&gt;&lt;div&gt;ms&lt;/div&gt;" style="shape=mxgraph.flowchart.data;strokeWidth=2;gradientColor=none;gradientDirection=north;fontStyle=0;html=1;" vertex="1" parent="1">
          <mxGeometry x="240" y="810" width="159" height="80" as="geometry" />
        </mxCell>
        <mxCell id="IALrsoC1u68m4rLIXQtQ-99" value="si" style="text;fontStyle=0;html=1;strokeColor=none;gradientColor=none;fillColor=none;strokeWidth=2;" vertex="1" parent="1">
          <mxGeometry x="268.5" y="1000" width="40" height="26" as="geometry" />
        </mxCell>
        <mxCell id="IALrsoC1u68m4rLIXQtQ-100" value="si" style="text;fontStyle=0;html=1;strokeColor=none;gradientColor=none;fillColor=none;strokeWidth=2;" vertex="1" parent="1">
          <mxGeometry x="217.5" y="1370" width="40" height="26" as="geometry" />
        </mxCell>
        <mxCell id="IALrsoC1u68m4rLIXQtQ-101" value="&amp;nbsp; Se crea nuevo archivo&lt;div&gt;de configuraciÃ³n&lt;/div&gt;" style="shape=mxgraph.flowchart.data;strokeWidth=2;gradientColor=none;gradientDirection=north;fontStyle=0;html=1;" vertex="1" parent="1">
          <mxGeometry x="238" y="1380" width="159" height="80" as="geometry" />
        </mxCell>
        <mxCell id="IALrsoC1u68m4rLIXQtQ-103" value="Descarga de mc" style="text;html=1;align=center;verticalAlign=middle;whiteSpace=wrap;rounded=0;rotation=-90;fontStyle=0;spacing=3;fontSize=24;" vertex="1" parent="1">
          <mxGeometry x="-4.5" y="422" width="195" height="30" as="geometry" />
        </mxCell>
        <mxCell id="IALrsoC1u68m4rLIXQtQ-104" value="Setup Git" style="text;html=1;align=center;verticalAlign=middle;whiteSpace=wrap;rounded=0;rotation=-90;fontStyle=0;spacing=3;fontSize=24;" vertex="1" parent="1">
          <mxGeometry x="-1" y="950" width="195" height="30" as="geometry" />
        </mxCell>
      </root>
    </mxGraphModel>
  </diagram>
</mxfile>
